<svg xmlns="http://www.w3.org/2000/svg" xmlns:xlink="http://www.w3.org/1999/xlink" viewBox="0 0 400 300"><defs><linearGradient id="linear-gradient" x1="164.92" y1="197.32" x2="146.53" y2="211.9" gradientTransform="translate(377.86 368.34) rotate(171.27)" gradientUnits="userSpaceOnUse"><stop offset="0" stop-color="#d46a00"/><stop offset="1" stop-color="#fff"/></linearGradient><linearGradient id="linear-gradient-2" x1="252" y1="204.82" x2="233.42" y2="219.56" xlink:href="#linear-gradient"/><linearGradient id="linear-gradient-3" x1="271.45" y1="207.7" x2="250.62" y2="224.22" gradientTransform="matrix(-1, -0.1, 0.1, -1, 531.04, 462.32)" xlink:href="#linear-gradient"/></defs><title>OK</title><g style="isolation:isolate"><g id="Layer_2" data-name="Layer 2"><path d="M207.14,287.09l142.42-83.2a8,8,0,0,0,0-13.75L207.43,107.61a7.87,7.87,0,0,0-6.5-.67c-.14,0,3.37-1.09,3.27-1L54.07,190.48a8,8,0,0,0-.14,13.78L194.08,287A13.54,13.54,0,0,0,207.14,287.09Z" fill="#ffc963"/><path d="M185.56,203.71l29.32-14s-5.45-15.11-25.33-20.09l-8.68,19.76" fill="url(#linear-gradient)" style="mix-blend-mode:multiply"/><path d="M100.06,211.14l28.36-16.9s-2.27-9.58-22.15-14.57L85.76,193.76" fill="url(#linear-gradient-2)" style="mix-blend-mode:multiply"/><polygon points="325.9 199.72 345.53 187.81 327.62 177.29 325.9 199.72" fill="#f2ab38"/><path d="M333.76,90,205.61,16.22a4,4,0,0,0-6,3.15l-8.4,104.4a4,4,0,0,0,2,3.8l128.1,72.58a4,4,0,0,0,5.95-3l10.86-98.47A8.86,8.86,0,0,0,333.76,90Z" fill="#ced4ea"/><polygon points="321.51 202.01 325.9 199.72 321.94 198.59 321.51 202.01" fill="#ced4ea"/><path d="M330.13,91.77,202,18a4,4,0,0,0-6,3.15l-8.4,104.4a4,4,0,0,0,2,3.8l128.1,72.58a4,4,0,0,0,5.95-3l10.86-98.47A8.86,8.86,0,0,0,330.13,91.77Z" fill="#e4e7f4"/><path d="M333,114.37l1.54-14a8.86,8.86,0,0,0-4.39-8.65L202,18a4,4,0,0,0-6,3.15l-1.15,14.3L332.66,114.6Z" fill="#4367c7"/><path d="M200.86,57.37l-2.69,32.82a5.42,5.42,0,0,0,2.7,5.14l21.69,12.47a2.79,2.79,0,0,0,4.16-2.18l2.74-32.81a5.42,5.42,0,0,0-2.7-5.15L205,55.18A2.79,2.79,0,0,0,200.86,57.37Z" fill="#add5f7"/><path d="M203.2,66.74V67a2.25,2.25,0,0,0,1.12,1.95l16.73,9.68a2.25,2.25,0,0,0,3.38-1.95h0a2.25,2.25,0,0,0-1.1-1.94L206.6,64.81A2.25,2.25,0,0,0,203.2,66.74Z" fill="#4367c7"/><line x1="203.02" y1="73.87" x2="224.61" y2="86.25" fill="#add5f7"/><path d="M202.45,74.84,224,87.22a1.13,1.13,0,0,0,1.14-1.94L203.59,72.9a1.13,1.13,0,0,0-1.14,1.94Z" fill="#fff"/><line x1="203.02" y1="78.87" x2="224.61" y2="91.25" fill="#add5f7"/><path d="M202.45,79.84,224,92.22a1.13,1.13,0,0,0,1.14-1.94L203.59,77.9a1.13,1.13,0,0,0-1.14,1.94Z" fill="#fff"/><line x1="203.02" y1="84.03" x2="224.61" y2="96.41" fill="#add5f7"/><path d="M202.45,85,224,97.38a1.13,1.13,0,0,0,1.14-1.94L203.59,83.06A1.13,1.13,0,0,0,202.45,85Z" fill="#fff"/><path d="M235.62,71.71c0,1.37-7.7,70.35-7.7,70.35l83.53,48.73,8.36-70Z" fill="#add5f7"/><path d="M241.42,96.94v.39a3.55,3.55,0,0,0,1.77,3.07l26.38,15.27a3.55,3.55,0,0,0,5.33-3.07h0a3.55,3.55,0,0,0-1.74-3.05L246.78,93.89A3.55,3.55,0,0,0,241.42,96.94Z" fill="#4367c7"/><line x1="241.15" y1="108.17" x2="275.18" y2="127.7" fill="#add5f7"/><path d="M240.58,109.15l34,19.52a1.13,1.13,0,0,0,1.14-1.94l-34-19.52a1.13,1.13,0,0,0-1.14,1.94Z" fill="#fff"/><line x1="241.15" y1="116.06" x2="275.18" y2="135.58" fill="#add5f7"/><path d="M240.58,117l34,19.52a1.13,1.13,0,0,0,1.14-1.94l-34-19.52a1.13,1.13,0,0,0-1.14,1.94Z" fill="#fff"/><line x1="241.15" y1="124.19" x2="275.18" y2="143.72" fill="#add5f7"/><path d="M240.58,125.16l34,19.52a1.13,1.13,0,0,0,1.14-1.94l-34-19.52a1.13,1.13,0,0,0-1.14,1.94Z" fill="#fff"/><path d="M284.25,114.28l-5.09,48.78a2.81,2.81,0,0,0,1.41,2.74l22.26,12.56a2.81,2.81,0,0,0,4.17-2.11l5.73-48a2.81,2.81,0,0,0-1.37-2.76l-22.89-13.35A2.81,2.81,0,0,0,284.25,114.28Z" fill="#fff"/><ellipse cx="204.15" cy="29.5" rx="1.76" ry="2.49" fill="#add5f7"/><ellipse cx="209.79" cy="32.95" rx="1.76" ry="2.49" fill="#fff"/><polygon points="147.07 37.45 99 65.12 99 105.97 147.07 78.32 147.07 37.45" fill="#4367c7"/><polygon points="102.32 67.91 102.32 99.35 143.75 75.53 143.75 44.07 102.32 67.91" fill="#fff"/><path d="M102.32,99.35l9.92-21.95a4.5,4.5,0,0,1,5.92-2.26L123,77.31l9.5-16a3.1,3.1,0,0,1,4.53-.89l6.69,5V75.53Z" fill="#ffcb74"/><ellipse cx="121.21" cy="66.18" rx="5.53" ry="3.08" transform="translate(21.96 162.21) rotate(-72.69)" fill="#ffc963"/><path d="M171.34,111.44s-6.69,7.76-6.93,13.32,7.67,15.39,7.67,15.39l5.11-8.07s-6.66-6.88,0-12.18c0,0,2.28-8.93-5.86-8.47" fill="#ce5438"/><path d="M173.88,187.29s-2.52,3.49-2.31,5.53,3.41,5.48,4.14,6.94.92,2.1,0,3.16-8.76-5.78-8.95-6.87,1.09-5.29,1.09-5.29l-3.48,4.4-2.54-1.5,5.38-9.06" fill="#ea7554"/><path d="M174.87,203c-.21-.21-6.42-2.36-6.42-2.36s-2.92-3-2.84-4.2,1.15-5.76,2.24-5.71,1.21,6.14,1.21,6.14Z" fill="#15156d"/><path d="M182.26,193.07l.8,9.3s2,1.47,2.5,1.34,2-.51,2-.75-.71-6.57-.51-6.74,3.29,4.84,4.25,4.94,8.34-4.18,7.63-5.81-4.27-.78-6-.79a6.17,6.17,0,0,1-5.5-4" fill="#ea7554"/><path d="M186.93,167.89l4.5,23.83s-2.6,3.4-11.89,3l-6.91-16.9" fill="#3129a3"/><path d="M188.92,130.49s6.93,10.12,4.8,26.51c-1.89,14.52-16.4,31.64-16.4,31.64S173,190.55,164,182l10-15.84s-9.71-22.5,1.75-36.79" fill="#3129a3"/><g opacity="0.55"><path d="M207.89,108.68c-.49-5.79,1.9-10.56,5.45-10.85s6.7,4,7.19,9.79-1.9,10.56-5.45,10.85S208.38,114.47,207.89,108.68Zm1.92-.16c.38,4.55,2.72,8.23,5.11,8s4.07-4.22,3.69-8.77-2.72-8.23-5.11-8S209.42,104,209.81,108.52Z" fill="#f2f2f2"/></g><path d="M208.47,111.07a1,1,0,0,1,2,0c0,.68,0,1.36,0,2l.23-.44a29.22,29.22,0,0,0,1.76-5.85c.25-1.3,2.12-.72,2,.54a20.32,20.32,0,0,1-.62,2.91l.2-.08a1.33,1.33,0,0,1,1.7.94,1.88,1.88,0,0,1,.05,1l.15,0a1.46,1.46,0,0,1,.74,2.26,1.34,1.34,0,0,1,.49.79,2,2,0,0,1-.87,1.86c-.7.58-1.45,1.33-2.09,2-.83.81-1.78,1.62-2.56,2.27s-2.07-1.5-2.08-2.22a.93.93,0,0,1-1.21-.94Q208.55,114.58,208.47,111.07Z" fill="#ffac99"/><path d="M212.52,113.23q.72-1.49,1.32-3c.09-.22.44-.12.35.1q-.62,1.59-1.36,3.12C212.73,113.63,212.42,113.44,212.52,113.23Z" fill="#af594a"/><path d="M187.87,108.15a33.34,33.34,0,0,1,4.69,5.17c1.31,2.12,6.56,7.9,8.72,6.16s6-5.07,6-5.07,5.46,3.76,4.9,7.67c0,0-4.85,9.91-12.41,7.73s-9.45-5-9.45-5l-1.14,6.45s-9.38,2.94-13.73-1.42c0,0-2.86-18.52-.75-21.29" fill="#ea7554"/><path d="M188.91,96.93c.07.21.23,6.93-2.05,7.57s-6.17-1-7.18-3.09.43-8.91,4-9.31S188.27,95,188.91,96.93Z" fill="#ffac99"/><path d="M171.22,107.52c.65-1.48,1.71-2.27,1.46-4a8.14,8.14,0,0,1-.07-4c.49-1.38,1.65-2,2.75-2.82a7,7,0,0,0,.9-.79l.24-.4a19.6,19.6,0,0,1,2-3.45,6,6,0,0,1,3.25-1.67,9.69,9.69,0,0,1,7.43,1.7s2,1.88,1.35,3.9-3.07,1.28-4.42,2.2c-1.51,1-.55,3,.08,4.2a6.44,6.44,0,0,1,.67,3.07,4,4,0,0,0,1,2.71,6.29,6.29,0,0,1,1.58,3.28c.11,2.49-2.52,7.74-10.07,5.79-.49-.13-1-.27-1.5-.44a13.1,13.1,0,0,1-4.45-2.2C171.34,112.94,170.11,110.07,171.22,107.52Z" fill="#3129a3"/><path d="M187.86,172.8s-7.94,13.75-10.53,15.84l2.21,6S188.76,181.74,187.86,172.8Z" fill="#15156d"/><path d="M174.08,165.44a43.29,43.29,0,0,0,4.14-17.09c0-.47.75-.47.73,0a44.22,44.22,0,0,1-4.24,17.46C174.52,166.24,173.88,165.86,174.08,165.44Z" fill="#15156d"/><ellipse cx="94.55" cy="198.22" rx="14.95" ry="13.89" fill="#ffcb74"/><ellipse cx="94.54" cy="190.02" rx="11.19" ry="6.05" fill="#1d3f75"/><path d="M94,141.22V188.7a1,1,0,0,0,1.91,0V141.22A1,1,0,0,0,94,141.22Z" fill="#1c7377"/><path d="M98.46,139.45a4.59,4.59,0,0,0,.29-3.63c-.44-1.31-1.07-2.57-1.59-3.85s-1-2.41-1.53-3.58h0c-.56.28-4.57,6.32-4.74,8.85S94,141.92,94,141.92l1,.64c.18.12,1.92-1.32,2.12-1.49A5.39,5.39,0,0,0,98.46,139.45Z" fill="#1c7377"/><path d="M95.48,153.28v0c4.23-.41,7.16-4,9.15-7.67C100.14,145.84,96,148.67,95.48,153.28Z" fill="#1c7377"/><path d="M95.15,153.12h0c-1.28-4.05-5.38-6.17-9.41-7.35C86.9,150.11,90.53,153.56,95.15,153.12Z" fill="#1c7377"/><path d="M94.92,164.94v0c5.39-.52,9.11-5.06,11.65-9.76C100.85,155.47,95.59,159.07,94.92,164.94Z" fill="#1c7377"/><path d="M94.5,164.73h0c-1.63-5.16-6.85-7.85-12-9.36C84,160.9,88.62,165.3,94.5,164.73Z" fill="#1c7377"/><path d="M95.33,178.61v0c6.14-.6,10.38-5.77,13.27-11.13C102.09,167.82,96.1,171.92,95.33,178.61Z" fill="#1c7377"/><path d="M94.85,178.38h0c-1.86-5.88-7.8-9-13.65-10.66C82.89,174,88.15,179,94.85,178.38Z" fill="#1c7377"/><path d="M279.69,224.6l5.83,3.1,24.28-11.2s0-3.33-3.47-8C296.81,213.93,289.35,219.4,279.69,224.6Z" fill="url(#linear-gradient-3)" style="mix-blend-mode:multiply"/><path d="M288,223.2V175.42a4.37,4.37,0,0,0-3.55-4.43,4.15,4.15,0,0,0-4.75,4.11v49.5a3.74,3.74,0,0,0,5.83,3.1l.08-.06A5.42,5.42,0,0,0,288,223.2Z" fill="#ffcb74"/><path d="M288,192.67V175.42a4.37,4.37,0,0,0-3.55-4.43,4.15,4.15,0,0,0-4.75,4.11v27.52A69,69,0,0,0,288,192.67Z" opacity="0.27"/><path d="M240.89,172.7s41.89-2.66,44.56-1.43,3.76,5.67,2.75,11.85-21,31.07-21,31.07" fill="#ffcb74"/><path d="M269.63,185.68c6.08-3.72,12.42-7,18.54-10.65a6.12,6.12,0,0,0-2-3.39c-11.66,5.71-23.15,11.75-34.76,17.57l3.5,5.53C259.88,191.78,264.72,188.68,269.63,185.68Z" fill="#fff" opacity="0.51"/><path d="M268.13,190.91c6.77-4.31,13.82-8.21,20.45-12.75,0-.28,0-.56,0-.82-5.89,3.49-12,6.64-17.81,10.22-4.88,3-9.71,6.07-14.62,9l.86,1.36C260.71,195.63,264.42,193.27,268.13,190.91Z" fill="#fff" opacity="0.51"/><path d="M228,186.14c.12-.43,4.39-19.92,23.74-11.63,17.49,7.5,18,29.79,16.83,35.24-1,4.44-5.5,10.48-14.25,12.67" fill="#8c0000"/><ellipse cx="246.26" cy="198.74" rx="17.85" ry="25.09" transform="translate(-58.71 114.26) rotate(-23.42)" fill="#ce4242"/><path d="M265.05,199.86l-19,5-4.15-8.8,17.16-10.68S264,192.85,265.05,199.86Z" fill="#fff"/><ellipse cx="244.29" cy="200.3" rx="3.93" ry="4.89" transform="translate(-64.24 132.41) rotate(-26.94)" fill="#f7d600"/><path d="M221.57,218h-7.72c-3.22,0-3.22,5,0,5h7.72C224.79,223,224.79,218,221.57,218Z" fill="#fff"/><path d="M222.76,229.48l-10.59,10.59c-2.28,2.28,1.26,5.81,3.54,3.54L226.3,233C228.57,230.74,225,227.2,222.76,229.48Z" fill="#fff"/><path d="M233.39,231.16v6.18c0,3.22,5,3.22,5,0v-6.18C238.39,227.94,233.39,227.94,233.39,231.16Z" fill="#fff"/></g></g></svg>